<svg xmlns="http://www.w3.org/2000/svg" viewBox="0 0 100 100" width="100" height="100">
  <rect width="100" height="100" rx="20" fill="#0080ff" />
  <path d="M50 20c-16.569 0-30 13.431-30 30 0 16.569 13.431 30 30 30 16.569 0 30-13.431 30-30 0-16.569-13.431-30-30-30zm0 5c13.807 0 25 11.193 25 25 0 13.807-11.193 25-25 25-13.807 0-25-11.193-25-25 0-13.807 11.193-25 25-25z" fill="white" />
  <path d="M65 45c0 8.284-6.716 15-15 15-8.284 0-15-6.716-15-15 0-8.284 6.716-15 15-15 8.284 0 15 6.716 15 15z" fill="white" />
  <path d="M48 65v10c0 1.104 0.896 2 2 2s2-0.896 2-2v-10h-4z" fill="white" />
  <path d="M40 40l-10-8" stroke="white" stroke-width="3" stroke-linecap="round" />
  <path d="M70 40l-10-8" stroke="white" stroke-width="3" stroke-linecap="round" transform="scale(-1, 1) translate(-100, 0)" />
</svg> 